<mxfile host="app.diagrams.net" agent="Mozilla/5.0 (Macintosh; Intel Mac OS X 10_15_7) AppleWebKit/537.36 (KHTML, like Gecko) Chrome/133.0.0.0 Safari/537.36" version="26.0.16">
  <diagram name="Page-1" id="aaaa8250-4180-3840-79b5-4cada1eebb92">
    <mxGraphModel dx="4755" dy="1320" grid="1" gridSize="10" guides="1" tooltips="1" connect="1" arrows="1" fold="1" page="1" pageScale="1" pageWidth="850" pageHeight="1100" background="none" math="0" shadow="0">
      <root>
        <mxCell id="0" />
        <mxCell id="1" parent="0" />
        <mxCell id="ahGVLFUYRC1W6QIKzruJ-1" value="us-east-1&lt;div&gt;&lt;br&gt;&lt;/div&gt;" style="points=[[0,0],[0.25,0],[0.5,0],[0.75,0],[1,0],[1,0.25],[1,0.5],[1,0.75],[1,1],[0.75,1],[0.5,1],[0.25,1],[0,1],[0,0.75],[0,0.5],[0,0.25]];outlineConnect=0;gradientColor=none;html=1;whiteSpace=wrap;fontSize=12;fontStyle=0;container=1;pointerEvents=0;collapsible=0;recursiveResize=0;shape=mxgraph.aws4.group;grIcon=mxgraph.aws4.group_region;strokeColor=#00A4A6;fillColor=none;verticalAlign=top;align=left;spacingLeft=30;fontColor=#147EBA;dashed=1;" vertex="1" parent="1">
          <mxGeometry x="30" y="200" width="750" height="410" as="geometry" />
        </mxCell>
        <mxCell id="ahGVLFUYRC1W6QIKzruJ-2" value="ListUsers" style="sketch=0;outlineConnect=0;fontColor=#232F3E;gradientColor=none;fillColor=#ED7100;strokeColor=none;dashed=0;verticalLabelPosition=bottom;verticalAlign=top;align=center;html=1;fontSize=12;fontStyle=0;aspect=fixed;pointerEvents=1;shape=mxgraph.aws4.lambda_function;" vertex="1" parent="ahGVLFUYRC1W6QIKzruJ-1">
          <mxGeometry x="62" y="160" width="70" height="70" as="geometry" />
        </mxCell>
        <mxCell id="ahGVLFUYRC1W6QIKzruJ-3" value="ResetPasswords" style="sketch=0;outlineConnect=0;fontColor=#232F3E;gradientColor=none;fillColor=#ED7100;strokeColor=none;dashed=0;verticalLabelPosition=bottom;verticalAlign=top;align=center;html=1;fontSize=12;fontStyle=0;aspect=fixed;pointerEvents=1;shape=mxgraph.aws4.lambda_function;" vertex="1" parent="ahGVLFUYRC1W6QIKzruJ-1">
          <mxGeometry x="570" y="166" width="70" height="70" as="geometry" />
        </mxCell>
        <mxCell id="ahGVLFUYRC1W6QIKzruJ-22" style="edgeStyle=orthogonalEdgeStyle;rounded=0;orthogonalLoop=1;jettySize=auto;html=1;" edge="1" parent="ahGVLFUYRC1W6QIKzruJ-1" source="ahGVLFUYRC1W6QIKzruJ-4" target="ahGVLFUYRC1W6QIKzruJ-3">
          <mxGeometry relative="1" as="geometry">
            <Array as="points">
              <mxPoint x="520" y="195" />
              <mxPoint x="520" y="195" />
            </Array>
          </mxGeometry>
        </mxCell>
        <mxCell id="ahGVLFUYRC1W6QIKzruJ-29" value="Consumer" style="edgeLabel;html=1;align=center;verticalAlign=middle;resizable=0;points=[];" vertex="1" connectable="0" parent="ahGVLFUYRC1W6QIKzruJ-22">
          <mxGeometry x="0.1043" y="-2" relative="1" as="geometry">
            <mxPoint x="-1" as="offset" />
          </mxGeometry>
        </mxCell>
        <mxCell id="ahGVLFUYRC1W6QIKzruJ-4" value="ChangePasswordSQS" style="sketch=0;points=[[0,0,0],[0.25,0,0],[0.5,0,0],[0.75,0,0],[1,0,0],[0,1,0],[0.25,1,0],[0.5,1,0],[0.75,1,0],[1,1,0],[0,0.25,0],[0,0.5,0],[0,0.75,0],[1,0.25,0],[1,0.5,0],[1,0.75,0]];outlineConnect=0;fontColor=#232F3E;fillColor=#E7157B;strokeColor=#ffffff;dashed=0;verticalLabelPosition=bottom;verticalAlign=top;align=center;html=1;fontSize=12;fontStyle=0;aspect=fixed;shape=mxgraph.aws4.resourceIcon;resIcon=mxgraph.aws4.sqs;" vertex="1" parent="ahGVLFUYRC1W6QIKzruJ-1">
          <mxGeometry x="317" y="166" width="58" height="58" as="geometry" />
        </mxCell>
        <mxCell id="ahGVLFUYRC1W6QIKzruJ-5" value="" style="outlineConnect=0;dashed=0;verticalLabelPosition=bottom;verticalAlign=top;align=center;html=1;shape=mxgraph.aws3.android;fillColor=#8CC64F;gradientColor=none;" vertex="1" parent="ahGVLFUYRC1W6QIKzruJ-1">
          <mxGeometry x="20" y="175" width="32" height="40" as="geometry" />
        </mxCell>
        <mxCell id="ahGVLFUYRC1W6QIKzruJ-6" value="" style="outlineConnect=0;dashed=0;verticalLabelPosition=bottom;verticalAlign=top;align=center;html=1;shape=mxgraph.aws3.android;fillColor=#8CC64F;gradientColor=none;" vertex="1" parent="ahGVLFUYRC1W6QIKzruJ-1">
          <mxGeometry x="650" y="175" width="32" height="40" as="geometry" />
        </mxCell>
        <mxCell id="ahGVLFUYRC1W6QIKzruJ-8" value="Force Change Password User&lt;div&gt;&lt;br&gt;&lt;/div&gt;" style="sketch=0;outlineConnect=0;fontColor=#232F3E;gradientColor=none;fillColor=#232F3D;strokeColor=none;dashed=0;verticalLabelPosition=bottom;verticalAlign=top;align=center;html=1;fontSize=12;fontStyle=0;aspect=fixed;pointerEvents=1;shape=mxgraph.aws4.authenticated_user;" vertex="1" parent="ahGVLFUYRC1W6QIKzruJ-1">
          <mxGeometry x="72" y="40" width="50" height="50" as="geometry" />
        </mxCell>
        <mxCell id="ahGVLFUYRC1W6QIKzruJ-11" style="edgeStyle=orthogonalEdgeStyle;rounded=0;orthogonalLoop=1;jettySize=auto;html=1;" edge="1" parent="ahGVLFUYRC1W6QIKzruJ-1" source="ahGVLFUYRC1W6QIKzruJ-9" target="ahGVLFUYRC1W6QIKzruJ-2">
          <mxGeometry relative="1" as="geometry" />
        </mxCell>
        <mxCell id="ahGVLFUYRC1W6QIKzruJ-18" value="Get Status&amp;nbsp;&lt;div&gt;Force Change Password users&lt;/div&gt;" style="edgeLabel;html=1;align=center;verticalAlign=middle;resizable=0;points=[];" vertex="1" connectable="0" parent="ahGVLFUYRC1W6QIKzruJ-11">
          <mxGeometry x="0.0237" y="1" relative="1" as="geometry">
            <mxPoint x="48" y="19" as="offset" />
          </mxGeometry>
        </mxCell>
        <mxCell id="ahGVLFUYRC1W6QIKzruJ-9" value="Cognito user pool" style="sketch=0;points=[[0,0,0],[0.25,0,0],[0.5,0,0],[0.75,0,0],[1,0,0],[0,1,0],[0.25,1,0],[0.5,1,0],[0.75,1,0],[1,1,0],[0,0.25,0],[0,0.5,0],[0,0.75,0],[1,0.25,0],[1,0.5,0],[1,0.75,0]];outlineConnect=0;fontColor=#232F3E;fillColor=#DD344C;strokeColor=#ffffff;dashed=0;verticalLabelPosition=bottom;verticalAlign=top;align=center;html=1;fontSize=12;fontStyle=0;aspect=fixed;shape=mxgraph.aws4.resourceIcon;resIcon=mxgraph.aws4.cognito;" vertex="1" parent="ahGVLFUYRC1W6QIKzruJ-1">
          <mxGeometry x="315" y="320" width="60" height="60" as="geometry" />
        </mxCell>
        <mxCell id="ahGVLFUYRC1W6QIKzruJ-13" style="edgeStyle=orthogonalEdgeStyle;rounded=0;orthogonalLoop=1;jettySize=auto;html=1;entryX=0;entryY=0.5;entryDx=0;entryDy=0;entryPerimeter=0;" edge="1" parent="ahGVLFUYRC1W6QIKzruJ-1" source="ahGVLFUYRC1W6QIKzruJ-2" target="ahGVLFUYRC1W6QIKzruJ-4">
          <mxGeometry relative="1" as="geometry" />
        </mxCell>
        <mxCell id="ahGVLFUYRC1W6QIKzruJ-14" value="Users" style="sketch=0;outlineConnect=0;fontColor=#232F3E;gradientColor=none;strokeColor=#232F3E;fillColor=#ffffff;dashed=0;verticalLabelPosition=bottom;verticalAlign=top;align=center;html=1;fontSize=12;fontStyle=0;aspect=fixed;shape=mxgraph.aws4.resourceIcon;resIcon=mxgraph.aws4.users;" vertex="1" parent="ahGVLFUYRC1W6QIKzruJ-1">
          <mxGeometry x="190" y="150" width="60" height="60" as="geometry" />
        </mxCell>
        <mxCell id="ahGVLFUYRC1W6QIKzruJ-15" value="Task Queue" style="verticalLabelPosition=bottom;html=1;verticalAlign=top;align=center;strokeColor=#A50040;fillColor=#d80073;shape=mxgraph.azure.queue_generic;pointerEvents=1;fontColor=light-dark(#FFFFFF,#FFFFFF);" vertex="1" parent="ahGVLFUYRC1W6QIKzruJ-1">
          <mxGeometry x="300" y="250" width="115" height="35" as="geometry" />
        </mxCell>
        <mxCell id="ahGVLFUYRC1W6QIKzruJ-17" style="edgeStyle=orthogonalEdgeStyle;rounded=0;orthogonalLoop=1;jettySize=auto;html=1;entryX=1;entryY=0.5;entryDx=0;entryDy=0;entryPerimeter=0;" edge="1" parent="ahGVLFUYRC1W6QIKzruJ-1" source="ahGVLFUYRC1W6QIKzruJ-3" target="ahGVLFUYRC1W6QIKzruJ-9">
          <mxGeometry relative="1" as="geometry">
            <mxPoint x="604.9999999999995" y="285" as="targetPoint" />
            <Array as="points">
              <mxPoint x="605" y="350" />
            </Array>
          </mxGeometry>
        </mxCell>
        <mxCell id="ahGVLFUYRC1W6QIKzruJ-19" value="adminSetUserPassword" style="edgeLabel;html=1;align=center;verticalAlign=middle;resizable=0;points=[];" vertex="1" connectable="0" parent="ahGVLFUYRC1W6QIKzruJ-17">
          <mxGeometry x="0.1841" y="1" relative="1" as="geometry">
            <mxPoint y="19" as="offset" />
          </mxGeometry>
        </mxCell>
        <mxCell id="ahGVLFUYRC1W6QIKzruJ-26" value="" style="dashed=0;outlineConnect=0;html=1;align=center;labelPosition=center;verticalLabelPosition=bottom;verticalAlign=top;shape=mxgraph.webicons.json;gradientColor=#DFDEDE" vertex="1" parent="ahGVLFUYRC1W6QIKzruJ-1">
          <mxGeometry x="500" y="130" width="60" height="61.4" as="geometry" />
        </mxCell>
        <mxCell id="ahGVLFUYRC1W6QIKzruJ-27" value="" style="dashed=0;outlineConnect=0;html=1;align=center;labelPosition=center;verticalLabelPosition=bottom;verticalAlign=top;shape=mxgraph.webicons.json;gradientColor=#DFDEDE" vertex="1" parent="ahGVLFUYRC1W6QIKzruJ-1">
          <mxGeometry x="440" y="130" width="60" height="61.4" as="geometry" />
        </mxCell>
        <mxCell id="ahGVLFUYRC1W6QIKzruJ-28" value="" style="dashed=0;outlineConnect=0;html=1;align=center;labelPosition=center;verticalLabelPosition=bottom;verticalAlign=top;shape=mxgraph.webicons.json;gradientColor=#DFDEDE" vertex="1" parent="ahGVLFUYRC1W6QIKzruJ-1">
          <mxGeometry x="380" y="130" width="60" height="61.4" as="geometry" />
        </mxCell>
        <mxCell id="ahGVLFUYRC1W6QIKzruJ-7" value="&lt;span class=&quot;s1&quot;&gt;Arquitectura propuesta:&lt;/span&gt;&#xa;&lt;p class=&quot;p2&quot;&gt;&lt;span class=&quot;s2&quot;&gt;&lt;span style=&quot;white-space: pre;&quot;&gt;&amp;nbsp;&amp;nbsp;&amp;nbsp;&amp;nbsp;&lt;/span&gt;1.&lt;span style=&quot;white-space: pre;&quot;&gt;&amp;nbsp;&amp;nbsp;&amp;nbsp;&amp;nbsp;&lt;/span&gt;&lt;/span&gt;&lt;span class=&quot;s3&quot;&gt;AWS Lambda (funciÃ³n de procesamiento):&lt;/span&gt;&lt;/p&gt;&#xa;&lt;p class=&quot;p3&quot;&gt;&lt;span class=&quot;s2&quot;&gt;&lt;span style=&quot;white-space: pre;&quot;&gt;&amp;nbsp;&amp;nbsp;&amp;nbsp;&amp;nbsp;&lt;/span&gt;â¢&lt;span style=&quot;white-space: pre;&quot;&gt;&amp;nbsp;&amp;nbsp;&amp;nbsp;&amp;nbsp;&lt;/span&gt;Se encargarÃ¡ de iterar sobre los usuarios del User Pool de Cognito y actualizar su contraseÃ±a temporal.&lt;/span&gt;&lt;/p&gt;&#xa;&lt;p class=&quot;p3&quot;&gt;&lt;span class=&quot;s2&quot;&gt;&lt;span style=&quot;white-space: pre;&quot;&gt;&amp;nbsp;&amp;nbsp;&amp;nbsp;&amp;nbsp;&lt;/span&gt;â¢&lt;span style=&quot;white-space: pre;&quot;&gt;&amp;nbsp;&amp;nbsp;&amp;nbsp;&amp;nbsp;&lt;/span&gt;Puede ejecutarse en paralelo para procesar mÃºltiples usuarios a la vez.&lt;/span&gt;&lt;/p&gt;&#xa;&lt;p class=&quot;p2&quot;&gt;&lt;span class=&quot;s2&quot;&gt;&lt;span style=&quot;white-space: pre;&quot;&gt;&amp;nbsp;&amp;nbsp;&amp;nbsp;&amp;nbsp;&lt;/span&gt;2.&lt;span style=&quot;white-space: pre;&quot;&gt;&amp;nbsp;&amp;nbsp;&amp;nbsp;&amp;nbsp;&lt;/span&gt;&lt;/span&gt;&lt;span class=&quot;s3&quot;&gt;Amazon SQS (Cola de mensajes):&lt;/span&gt;&lt;/p&gt;&#xa;&lt;p class=&quot;p3&quot;&gt;&lt;span class=&quot;s2&quot;&gt;&lt;span style=&quot;white-space: pre;&quot;&gt;&amp;nbsp;&amp;nbsp;&amp;nbsp;&amp;nbsp;&lt;/span&gt;â¢&lt;span style=&quot;white-space: pre;&quot;&gt;&amp;nbsp;&amp;nbsp;&amp;nbsp;&amp;nbsp;&lt;/span&gt;Dado que son mÃ¡s de 100 usuarios, usar una cola SQS permitirÃ¡ distribuir la carga de trabajo a mÃºltiples instancias de la Lambda.&lt;/span&gt;&lt;/p&gt;&#xa;&lt;p class=&quot;p3&quot;&gt;&lt;span class=&quot;s2&quot;&gt;&lt;span style=&quot;white-space: pre;&quot;&gt;&amp;nbsp;&amp;nbsp;&amp;nbsp;&amp;nbsp;&lt;/span&gt;â¢&lt;span style=&quot;white-space: pre;&quot;&gt;&amp;nbsp;&amp;nbsp;&amp;nbsp;&amp;nbsp;&lt;/span&gt;Se publicarÃ¡ un mensaje en la cola por cada usuario que requiere actualizaciÃ³n de contraseÃ±a.&lt;/span&gt;&lt;/p&gt;&#xa;&lt;p class=&quot;p2&quot;&gt;&lt;span class=&quot;s2&quot;&gt;&lt;span style=&quot;white-space: pre;&quot;&gt;&amp;nbsp;&amp;nbsp;&amp;nbsp;&amp;nbsp;&lt;/span&gt;3.&lt;span style=&quot;white-space: pre;&quot;&gt;&amp;nbsp;&amp;nbsp;&amp;nbsp;&amp;nbsp;&lt;/span&gt;&lt;/span&gt;&lt;span class=&quot;s3&quot;&gt;Amazon EventBridge o AWS Step Functions (Opcional, para automatizaciÃ³n y escalabilidad):&lt;/span&gt;&lt;/p&gt;&#xa;&lt;p class=&quot;p3&quot;&gt;&lt;span class=&quot;s2&quot;&gt;&lt;span style=&quot;white-space: pre;&quot;&gt;&amp;nbsp;&amp;nbsp;&amp;nbsp;&amp;nbsp;&lt;/span&gt;â¢&lt;span style=&quot;white-space: pre;&quot;&gt;&amp;nbsp;&amp;nbsp;&amp;nbsp;&amp;nbsp;&lt;/span&gt;&lt;/span&gt;&lt;span class=&quot;s3&quot;&gt;EventBridge:&lt;/span&gt;&lt;span class=&quot;s2&quot;&gt; Puede ejecutar periÃ³dicamente la funciÃ³n Lambda para detectar usuarios en estado &lt;/span&gt;&lt;span class=&quot;s4&quot;&gt;FORCE_CHANGE_PASSWORD&lt;/span&gt;&lt;span class=&quot;s2&quot;&gt;.&lt;/span&gt;&lt;/p&gt;&#xa;&lt;p class=&quot;p3&quot;&gt;&lt;span class=&quot;s2&quot;&gt;&lt;span style=&quot;white-space: pre;&quot;&gt;&amp;nbsp;&amp;nbsp;&amp;nbsp;&amp;nbsp;&lt;/span&gt;â¢&lt;span style=&quot;white-space: pre;&quot;&gt;&amp;nbsp;&amp;nbsp;&amp;nbsp;&amp;nbsp;&lt;/span&gt;&lt;/span&gt;&lt;span class=&quot;s3&quot;&gt;Step Functions:&lt;/span&gt;&lt;span class=&quot;s2&quot;&gt; Permite orquestar el proceso si se quiere mayor control, dividiendo en pasos como âListar usuariosâ, âEnviar mensajes a SQSâ y âActualizar contraseÃ±asâ.&lt;/span&gt;&lt;/p&gt;&#xa;&lt;p class=&quot;p4&quot;&gt;&lt;span class=&quot;s5&quot;&gt;&lt;/span&gt;&lt;/p&gt;&lt;hr&gt;&lt;p&gt;&lt;/p&gt;&#xa;&lt;span class=&quot;s1&quot;&gt;Flujo detallado:&lt;/span&gt;&#xa;&lt;p class=&quot;p2&quot;&gt;&lt;span class=&quot;s2&quot;&gt;&lt;span style=&quot;white-space: pre;&quot;&gt;&amp;nbsp;&amp;nbsp;&amp;nbsp;&amp;nbsp;&lt;/span&gt;1.&lt;span style=&quot;white-space: pre;&quot;&gt;&amp;nbsp;&amp;nbsp;&amp;nbsp;&amp;nbsp;&lt;/span&gt;&lt;/span&gt;&lt;span class=&quot;s3&quot;&gt;Lambda 1: Listar usuarios y enviar a SQS&lt;/span&gt;&lt;/p&gt;&#xa;&lt;p class=&quot;p3&quot;&gt;&lt;span class=&quot;s2&quot;&gt;&lt;span style=&quot;white-space: pre;&quot;&gt;&amp;nbsp;&amp;nbsp;&amp;nbsp;&amp;nbsp;&lt;/span&gt;â¢&lt;span style=&quot;white-space: pre;&quot;&gt;&amp;nbsp;&amp;nbsp;&amp;nbsp;&amp;nbsp;&lt;/span&gt;Utiliza &lt;/span&gt;&lt;span class=&quot;s4&quot;&gt;listUsers&lt;/span&gt;&lt;span class=&quot;s2&quot;&gt; del SDK de Cognito para obtener los usuarios con el estado &lt;/span&gt;&lt;span class=&quot;s4&quot;&gt;FORCE_CHANGE_PASSWORD&lt;/span&gt;&lt;span class=&quot;s2&quot;&gt;.&lt;/span&gt;&lt;/p&gt;&#xa;&lt;p class=&quot;p3&quot;&gt;&lt;span class=&quot;s2&quot;&gt;&lt;span style=&quot;white-space: pre;&quot;&gt;&amp;nbsp;&amp;nbsp;&amp;nbsp;&amp;nbsp;&lt;/span&gt;â¢&lt;span style=&quot;white-space: pre;&quot;&gt;&amp;nbsp;&amp;nbsp;&amp;nbsp;&amp;nbsp;&lt;/span&gt;EnvÃ­a un mensaje a SQS por cada usuario con su &lt;/span&gt;&lt;span class=&quot;s4&quot;&gt;Username&lt;/span&gt;&lt;span class=&quot;s2&quot;&gt;.&lt;/span&gt;&lt;/p&gt;&#xa;&lt;p class=&quot;p2&quot;&gt;&lt;span class=&quot;s2&quot;&gt;&lt;span style=&quot;white-space: pre;&quot;&gt;&amp;nbsp;&amp;nbsp;&amp;nbsp;&amp;nbsp;&lt;/span&gt;2.&lt;span style=&quot;white-space: pre;&quot;&gt;&amp;nbsp;&amp;nbsp;&amp;nbsp;&amp;nbsp;&lt;/span&gt;&lt;/span&gt;&lt;span class=&quot;s3&quot;&gt;Lambda 2: Procesar cada usuario desde SQS&lt;/span&gt;&lt;/p&gt;&#xa;&lt;p class=&quot;p3&quot;&gt;&lt;span class=&quot;s2&quot;&gt;&lt;span style=&quot;white-space: pre;&quot;&gt;&amp;nbsp;&amp;nbsp;&amp;nbsp;&amp;nbsp;&lt;/span&gt;â¢&lt;span style=&quot;white-space: pre;&quot;&gt;&amp;nbsp;&amp;nbsp;&amp;nbsp;&amp;nbsp;&lt;/span&gt;Se activa con cada mensaje en la cola.&lt;/span&gt;&lt;/p&gt;&#xa;&lt;p class=&quot;p3&quot;&gt;&lt;span class=&quot;s2&quot;&gt;&lt;span style=&quot;white-space: pre;&quot;&gt;&amp;nbsp;&amp;nbsp;&amp;nbsp;&amp;nbsp;&lt;/span&gt;â¢&lt;span style=&quot;white-space: pre;&quot;&gt;&amp;nbsp;&amp;nbsp;&amp;nbsp;&amp;nbsp;&lt;/span&gt;Usa &lt;/span&gt;&lt;span class=&quot;s4&quot;&gt;adminSetUserPassword&lt;/span&gt;&lt;span class=&quot;s2&quot;&gt; para asignar una contraseÃ±a temporal.&lt;/span&gt;&lt;/p&gt;" style="text;whiteSpace=wrap;html=1;fillColor=none;align=left;spacing=2;" vertex="1" parent="1">
          <mxGeometry x="-430" y="170" width="360" height="790" as="geometry" />
        </mxCell>
      </root>
    </mxGraphModel>
  </diagram>
</mxfile>
